<svg width="1200" height="420" viewBox="0 0 1200 420" fill="none" xmlns="http://www.w3.org/2000/svg">
  <defs>
    <linearGradient id="bg" x1="0" y1="0" x2="1200" y2="420" gradientUnits="userSpaceOnUse">
      <stop stop-color="#07110F"/>
      <stop offset="1" stop-color="#0D1A17"/>
    </linearGradient>
    <linearGradient id="accent" x1="132" y1="250" x2="575" y2="250" gradientUnits="userSpaceOnUse">
      <stop stop-color="#73F2B5"/>
      <stop offset="0.64" stop-color="#A8FF78"/>
      <stop offset="1" stop-color="#FFCF70"/>
    </linearGradient>
    <filter id="glow" x="-100%" y="-100%" width="300%" height="300%">
      <feGaussianBlur stdDeviation="8"/>
    </filter>
    <pattern id="grid" width="28" height="28" patternUnits="userSpaceOnUse">
      <path d="M28 0H0V28" stroke="#EEF8F3" stroke-opacity="0.035"/>
    </pattern>
  </defs>

  <rect width="1200" height="420" rx="28" fill="url(#bg)"/>
  <rect width="1200" height="420" rx="28" fill="url(#grid)"/>
  <circle cx="1000" cy="195" r="180" fill="#73F2B5" fill-opacity="0.055" filter="url(#glow)"/>

  <rect x="66" y="50" width="38" height="38" rx="10" stroke="#EEF8F3" stroke-opacity="0.16"/>
  <text x="85" y="74" text-anchor="middle" fill="#73F2B5" font-family="monospace" font-size="12">MS</text>
  <text x="120" y="75" fill="#EEF8F3" font-family="Arial, sans-serif" font-size="18" font-weight="700">Manish Sudabattula</text>
  <circle cx="72" cy="125" r="5" fill="#73F2B5"/>
  <circle cx="72" cy="125" r="11" fill="#73F2B5" fill-opacity="0.12"/>
  <text x="92" y="130" fill="#73F2B5" font-family="monospace" font-size="12" letter-spacing="2">DATA ENGINEER · AI BUILDER</text>

  <text x="66" y="210" fill="#EEF8F3" font-family="Arial, sans-serif" font-size="55" font-weight="700" letter-spacing="-2">Systems built from data.</text>
  <text x="66" y="272" fill="url(#accent)" font-family="Arial, sans-serif" font-size="55" font-weight="700" letter-spacing="-2">Intelligence built with evidence.</text>
  <text x="68" y="322" fill="#91A49C" font-family="Arial, sans-serif" font-size="17">Cloud data platforms · trustworthy AI · research-backed product prototypes</text>

  <g transform="translate(770 75)">
    <rect width="355" height="270" rx="22" fill="#0A1512" stroke="#EEF8F3" stroke-opacity="0.13"/>
    <text x="22" y="32" fill="#91A49C" font-family="monospace" font-size="10">portfolio.pipeline</text>
    <circle cx="315" cy="29" r="3" fill="#91A49C" fill-opacity="0.5"/>
    <circle cx="326" cy="29" r="3" fill="#91A49C" fill-opacity="0.5"/>
    <circle cx="337" cy="29" r="3" fill="#91A49C" fill-opacity="0.5"/>
    <path d="M106 100H250V151H142V207H235" stroke="#73F2B5" stroke-opacity="0.45" stroke-dasharray="4 5"/>
    <circle cx="250" cy="151" r="4" fill="#73F2B5"/>
    <circle cx="142" cy="207" r="4" fill="#A8FF78"/>
    <g>
      <rect x="25" y="70" width="150" height="58" rx="10" fill="#12221E" stroke="#EEF8F3" stroke-opacity="0.13"/>
      <text x="40" y="91" fill="#91A49C" font-family="monospace" font-size="8">01 / INGEST</text>
      <text x="40" y="111" fill="#EEF8F3" font-family="Arial, sans-serif" font-size="13" font-weight="700">Raw signals</text>
    </g>
    <g>
      <rect x="180" y="126" width="150" height="58" rx="10" fill="#12221E" stroke="#EEF8F3" stroke-opacity="0.13"/>
      <text x="195" y="147" fill="#91A49C" font-family="monospace" font-size="8">02 / TRANSFORM</text>
      <text x="195" y="167" fill="#EEF8F3" font-family="Arial, sans-serif" font-size="13" font-weight="700">Trusted data</text>
    </g>
    <g>
      <rect x="36" y="198" width="165" height="58" rx="10" fill="#12221E" stroke="#73F2B5" stroke-opacity="0.5"/>
      <text x="51" y="219" fill="#91A49C" font-family="monospace" font-size="8">03 / INTELLIGENCE</text>
      <text x="51" y="239" fill="#EEF8F3" font-family="Arial, sans-serif" font-size="13" font-weight="700">Useful answers</text>
    </g>
  </g>

  <text x="68" y="382" fill="#91A49C" font-family="monospace" font-size="11">GCP · AWS · AZURE · SNOWFLAKE · BIGQUERY · SPARK · DBT · AIRFLOW · ML</text>
</svg>
